<svg width="77px" height="84px" viewBox="0 0 173 186" version="1.1" xmlns="http://www.w3.org/2000/svg" xmlns:xlink="http://www.w3.org/1999/xlink">
    <defs></defs>
    <g id="Page-1" stroke="none" stroke-width="1" fill="none" fill-rule="evenodd">
        <g id="2017-COFO-Design---logo---rgb-white" fill="#FFFFFF" fill-rule="nonzero">
            <path d="M158.432262,4.37653631 L152.682929,11.7952028 L150.934929,11.7952028 L150.934929,1.06586973 L152.790929,1.06586973 L152.790929,8.69920287 L158.706929,1.06586973 L160.288262,1.06586973 L160.288262,11.7952028 L158.432262,11.7952028 L158.432262,4.37653631 Z M128.249597,2.55120303 L128.249597,7.06053625 L123.68293,7.06053625 L123.68293,5.41786962 L126.425597,5.41786962 L126.425597,3.40986967 C125.76693,2.91920302 124.84693,2.59920303 123.83493,2.59920303 C121.64293,2.59920303 120.185597,4.22320299 120.185597,6.44720293 C120.185597,8.52986954 121.688263,10.2458695 123.665597,10.2458695 C125.029597,10.2458695 125.844263,9.80186951 126.67093,9.09920286 L127.86693,10.5232028 C126.76293,11.4592028 125.613597,11.9792028 123.741597,11.9792028 C120.508263,11.9792028 118.208263,9.43520285 118.208263,6.4138696 C118.208263,3.27253634 120.416263,0.880536402 123.773597,0.880536402 C125.67493,0.880536402 127.192263,1.64720305 128.249597,2.55120303 Z M93.6989308,1.06586973 L95.5842641,1.06586973 L95.5842641,11.7965361 L93.6989308,11.7965361 L93.6989308,1.06586973 Z M65.1402648,8.99120287 C65.1402648,9.70986951 65.7842648,10.2792028 66.8882648,10.2792028 C67.8695981,10.2792028 68.8349314,9.89520284 69.801598,9.17520286 L70.8122647,10.6005362 C69.725598,11.4738695 68.4829314,11.9498695 66.9189314,11.9498695 C64.7895982,11.9498695 63.2549315,10.6912028 63.2549315,8.82186954 C63.2549315,6.82986959 64.5429315,6.15520294 66.8269314,5.60320295 C68.8202647,5.14186963 69.249598,4.72853631 69.249598,3.94720299 C69.249598,3.12053635 68.5135981,2.58186969 67.3482648,2.58186969 C66.0149315,2.58186969 64.9882648,3.08853635 63.9602648,3.97653632 L62.8269315,2.62720302 C64.1135982,1.47920305 65.6615981,0.911203068 67.3029314,0.911203068 C69.5562647,0.911203068 71.133598,2.10720304 71.133598,4.12986965 C71.133598,5.92453628 69.9549314,6.73786959 67.6855981,7.28986958 C65.6309315,7.7792029 65.1402648,8.14720289 65.1402648,8.99120287 Z M40.9989321,11.7952028 L33.0415989,11.7952028 L33.0415989,1.06586973 L41.0749321,1.06586973 L41.0749321,2.75120302 L34.9269322,2.75120302 L34.9269322,5.63253628 L40.3082654,5.63253628 L40.3082654,7.31920291 L34.9269322,7.31920291 L34.9269322,10.1098695 L40.9989321,10.1098695 L40.9989321,11.7952028 Z M8.54693289,6.4138696 C8.54693289,4.29920298 7.07493293,2.78186969 4.82159965,2.78186969 L2.70693304,2.78186969 L2.70693304,10.0792028 L4.82159965,10.0792028 C7.07493293,10.0792028 8.54693289,8.52986954 8.54693289,6.4138696 Z M10.5242662,6.44720293 C10.5242662,9.48053619 8.1949329,11.7952028 4.82159965,11.7952028 L0.820266421,11.7952028 L0.820266421,1.06586973 L4.82159965,1.06586973 C8.1949329,1.06586973 10.5242662,3.40986967 10.5242662,6.44720293 Z M172.486929,114.5312 L159.928262,114.5312 L159.928262,126.9872 L145.384263,126.9872 L145.384263,114.5312 L132.825596,114.5312 L132.825596,99.9872006 L145.384263,99.9872006 L145.384263,87.5298676 L159.928262,87.5298676 L159.928262,99.9872006 L172.486929,99.9872006 L172.486929,114.5312 Z M145.384263,42.515202 L15.7135994,42.515202 L15.7135994,171.447199 L145.384263,171.447199 L145.384263,134.4672 L159.928262,134.4672 L159.928262,185.991198 L1.16959975,185.991198 L1.16959975,27.9712024 L159.928262,27.9712024 L159.928262,80.0992011 L145.384263,80.0992011 L145.384263,42.515202 Z M29.0442657,52.9338684 L45.5162653,52.9338684 L45.5162653,69.321868 L59.0629316,69.321868 L59.0629316,85.7085343 L74.1389313,85.7085343 L74.1389313,102.096534 L29.0442657,102.096534 L29.0442657,52.9338684 Z M53.8762651,146.173866 C57.0989317,146.173866 60.0709316,144.711199 62.0282649,142.1632 L73.5629313,151.024533 C68.8295981,157.184532 61.6549316,160.717866 53.8762651,160.717866 C40.2109321,160.717866 29.0949324,149.641866 29.0949324,136.0272 C29.0949324,122.412533 40.2109321,111.336534 53.8762651,111.336534 C61.6549316,111.336534 68.8295981,114.868534 73.5629313,121.029867 L62.0282649,129.889867 C60.0709316,127.341867 57.0989317,125.880533 53.8762651,125.880533 C48.2309319,125.880533 43.638932,130.432533 43.638932,136.0272 C43.638932,141.621866 48.2309319,146.173866 53.8762651,146.173866 Z M97.6989307,77.5152012 C97.6989307,71.9512013 102.266931,67.4218681 107.881597,67.4218681 C113.496264,67.4218681 118.064263,71.9512013 118.064263,77.5152012 C118.064263,83.0805343 113.496264,87.6085342 107.881597,87.6085342 C102.266931,87.6085342 97.6989307,83.0805343 97.6989307,77.5152012 Z M83.154931,77.5152012 C83.154931,91.1005341 94.2469308,102.152534 107.881597,102.152534 C121.516263,102.152534 132.608263,91.1005341 132.608263,77.5152012 C132.608263,63.9298682 121.516263,52.8778684 107.881597,52.8778684 C94.2469308,52.8778684 83.154931,63.9298682 83.154931,77.5152012 Z M83.3255977,136.761866 C83.3255977,150.253866 94.3202641,161.192532 107.881597,161.192532 C121.444263,161.192532 132.437596,150.253866 132.437596,136.761866 C132.437596,123.268533 121.444263,112.3312 107.881597,112.3312 C94.3202641,112.3312 83.3255977,123.268533 83.3255977,136.761866 Z" id="path22" transform="translate(86.653598, 93.435867) scale(1, -1) translate(-86.653598, -93.435867) "></path>
        </g>
    </g>
</svg>