<?xml version="1.0" encoding="UTF-8" standalone="no"?>
<svg
   xmlns:dc="http://purl.org/dc/elements/1.1/"
   xmlns:cc="http://creativecommons.org/ns#"
   xmlns:rdf="http://www.w3.org/1999/02/22-rdf-syntax-ns#"
   xmlns:svg="http://www.w3.org/2000/svg"
   xmlns="http://www.w3.org/2000/svg"
   viewBox="0 0 191.308 206.29066"
   width="129px"
   height="119px"
   xml:space="preserve"
   id="svg2"
   version="1.1"><metadata
     id="metadata8"><rdf:RDF><cc:Work
         rdf:about=""><dc:format>image/svg+xml</dc:format><dc:type
           rdf:resource="http://purl.org/dc/dcmitype/StillImage" /></cc:Work></rdf:RDF></metadata><defs
     id="defs6"><clipPath
       id="clipPath18"
       clipPathUnits="userSpaceOnUse"><path
         id="path16"
         d="M 0,154.718 H 143.481 V 0 H 0 Z" /></clipPath></defs><g
     transform="matrix(1.3333333,0,0,-1.3333333,0,206.29067)"
     id="g10"><g
       id="g12"><g
         clip-path="url(#clipPath18)"
         id="g14"><g
           transform="translate(125.5742,10.5644)"
           id="g20"><path
             id="path22"
             style="fill:#000000;fill-opacity:1;fill-rule:nonzero;stroke:none"
             d="m 0,0 -4.312,5.564 h -1.311 v -8.047 h 1.392 V 3.242 L 0.206,-2.483 H 1.392 V 5.564 H 0 Z m -22.637,-1.369 v 3.382 h -3.425 V 0.781 h 2.057 v -1.506 c -0.494,-0.368 -1.184,-0.608 -1.943,-0.608 -1.644,0 -2.737,1.218 -2.737,2.886 0,1.562 1.127,2.849 2.61,2.849 1.023,0 1.634,-0.333 2.254,-0.86 l 0.897,1.068 c -0.828,0.702 -1.69,1.092 -3.094,1.092 -2.425,0 -4.15,-1.908 -4.15,-4.174 0,-2.356 1.656,-4.15 4.174,-4.15 1.426,0 2.564,0.575 3.357,1.253 M -48.55,-2.483 h 1.414 v 8.048 h -1.414 z m -21.419,5.944 c 0,0.539 0.483,0.966 1.311,0.966 0.736,0 1.46,-0.288 2.185,-0.828 l 0.758,1.069 c -0.815,0.655 -1.747,1.012 -2.92,1.012 -1.597,0 -2.748,-0.944 -2.748,-2.346 0,-1.494 0.966,-2 2.679,-2.414 1.495,-0.346 1.817,-0.656 1.817,-1.242 0,-0.62 -0.552,-1.024 -1.426,-1.024 -1,0 -1.77,0.38 -2.541,1.046 l -0.85,-1.012 c 0.965,-0.861 2.126,-1.287 3.357,-1.287 1.69,0 2.873,0.897 2.873,2.414 0,1.346 -0.884,1.956 -2.586,2.37 -1.541,0.367 -1.909,0.643 -1.909,1.276 m -18.106,2.103 h -5.968 v -8.047 h 6.025 v 1.264 h -4.611 v 2.161 h 4.036 v 1.265 h -4.036 V 4.3 h 4.554 z m -24.339,-4.036 c 0,-1.586 -1.104,-2.724 -2.794,-2.724 h -1.586 v 5.473 h 1.586 c 1.69,0 2.794,-1.162 2.794,-2.749 m 1.483,0.025 c 0,2.275 -1.747,4.011 -4.277,4.011 h -3.001 v -8.047 h 3.001 c 2.53,0 4.277,1.758 4.277,4.036 M 10.541,82.616 H 1.122 v 9.342 H -9.786 v -9.342 h -9.419 V 71.708 h 9.419 V 62.365 H 1.122 v 9.343 h 9.419 z M -9.786,28.604 h -97.253 v 96.699 H -9.786 V 97.568 H 1.122 v 38.643 H -117.947 V 17.696 H 1.122 V 56.792 H -9.786 Z m -87.255,7.814 h 12.354 v 12.291 h 10.16 v 12.29 H -63.22 V 73.29 h -33.821 z m 18.624,69.93 c 2.417,0 4.646,-1.097 6.114,-3.008 l 8.651,6.646 c -3.55,4.62 -8.931,7.27 -14.765,7.27 -10.249,0 -18.586,-8.307 -18.586,-18.518 0,-10.211 8.337,-18.518 18.586,-18.518 5.834,0 11.215,2.649 14.765,7.27 l -8.651,6.645 c -1.468,-1.911 -3.697,-3.007 -6.114,-3.007 -4.234,0 -7.678,3.414 -7.678,7.61 0,4.196 3.444,7.61 7.678,7.61 M -45.55,54.854 c 0,-4.173 3.426,-7.57 7.637,-7.57 4.211,0 7.637,3.397 7.637,7.57 0,4.174 -3.426,7.57 -7.637,7.57 -4.211,0 -7.637,-3.396 -7.637,-7.57 m -10.908,0 c 0,10.189 8.319,18.478 18.545,18.478 10.226,0 18.545,-8.289 18.545,-18.478 0,-10.189 -8.319,-18.478 -18.545,-18.478 -10.226,0 -18.545,8.289 -18.545,18.478 m 0.128,44.435 c 0,10.119 8.246,18.323 18.417,18.323 10.172,0 18.417,-8.204 18.417,-18.323 0,-10.12 -8.245,-18.323 -18.417,-18.323 -10.171,0 -18.417,8.203 -18.417,18.323" /></g></g></g></g></svg>