<?xml version="1.0" encoding="UTF-8" standalone="no"?>
<svg width="84px" height="77px" viewBox="0 0 84 77" version="1.1" xmlns="http://www.w3.org/2000/svg" xmlns:xlink="http://www.w3.org/1999/xlink">
    <!-- Generator: Sketch 48.2 (47327) - http://www.bohemiancoding.com/sketch -->
    <title>Group</title>
    <desc>Created with Sketch.</desc>
    <defs></defs>
    <g id="Page-1" stroke="none" stroke-width="1" fill="none" fill-rule="evenodd">
        <g id="Group" fill="#FFFFFF">
            <path d="M83.3498728,34.5159628 L77.2853627,34.5159628 L77.2853627,28.5010298 L70.2621461,28.5010298 L70.2621461,34.5159628 L64.197636,34.5159628 L64.197636,41.5391794 L70.2621461,41.5391794 L70.2621461,47.5547562 L77.2853627,47.5547562 L77.2853627,41.5391794 L83.3498728,41.5391794 L83.3498728,34.5159628 Z M70.2621461,69.2920878 L7.64490389,69.2920878 L7.64490389,7.03154363 L70.2621461,7.03154363 L70.2621461,24.8889795 L77.2853627,24.8889795 L77.2853627,0.00832708739 L0.621687348,0.00832708739 L0.621687348,76.3153044 L77.2853627,76.3153044 L77.2853627,51.1429837 L70.2621461,51.1429837 L70.2621461,69.2920878 Z M14.0822085,64.2609718 L22.0364455,64.2609718 L22.0364455,56.3472979 L28.5780554,56.3472979 L28.5780554,48.4342679 L35.8581717,48.4342679 L35.8581717,40.520594 L14.0822085,40.520594 L14.0822085,64.2609718 Z M26.0734429,19.2358954 C27.6296507,19.2358954 29.0648129,19.942209 30.0099983,21.172624 L35.5800245,16.8935355 C33.2943243,13.9189059 29.8297177,12.2126789 26.0734429,12.2126789 C19.4745296,12.2126789 14.1066752,17.5612176 14.1066752,24.1356642 C14.1066752,30.7101109 19.4745296,36.0586495 26.0734429,36.0586495 C29.8297177,36.0586495 33.2943243,34.3530664 35.5800245,31.3777929 L30.0099983,27.0993483 C29.0648129,28.3297633 27.6296507,29.035433 26.0734429,29.035433 C23.3473429,29.035433 21.1298917,26.8372976 21.1298917,24.1356642 C21.1298917,21.4340309 23.3473429,19.2358954 26.0734429,19.2358954 Z M47.2351644,52.3907829 C47.2351644,55.0776075 49.4410262,57.2647973 52.1523174,57.2647973 C54.8636086,57.2647973 57.0694704,55.0776075 57.0694704,52.3907829 C57.0694704,49.7033145 54.8636086,47.5167685 52.1523174,47.5167685 C49.4410262,47.5167685 47.2351644,49.7033145 47.2351644,52.3907829 Z M40.2119479,52.3907829 C40.2119479,45.8305012 45.5682129,40.493552 52.1523174,40.493552 C58.736422,40.493552 64.0926869,45.8305012 64.0926869,52.3907829 C64.0926869,58.9510647 58.736422,64.2880139 52.1523174,64.2880139 C45.5682129,64.2880139 40.2119479,58.9510647 40.2119479,52.3907829 Z M40.2943619,23.7808978 C40.2943619,17.2656862 45.6036251,11.983465 52.1523174,11.983465 C58.7016536,11.983465 64.0102729,17.2656862 64.0102729,23.7808978 C64.0102729,30.2967532 58.7016536,35.5783306 52.1523174,35.5783306 C45.6036251,35.5783306 40.2943619,30.2967532 40.2943619,23.7808978 Z" id="Fill-1"></path>
        </g>
    </g>
</svg>