<?xml version="1.0" encoding="UTF-8" standalone="no"?>
<svg width="129px" height="119px" viewBox="0 0 129 119" version="1.1" xmlns="http://www.w3.org/2000/svg" xmlns:xlink="http://www.w3.org/1999/xlink">
    <!-- Generator: Sketch 46.1 (44463) - http://www.bohemiancoding.com/sketch -->
    <title>logo-black</title>
    <desc>Created with Sketch.</desc>
    <defs></defs>
    <g id="//" stroke="none" stroke-width="1" fill="none" fill-rule="evenodd">
        <g id="Artboard" transform="translate(-115.000000, -62.000000)" fill="#000000">
            <g id="logo-black" transform="translate(115.000000, 62.000000)">
                <polygon id="Path" points="108.258737 107.88905 11.0057375 107.88905 11.0057375 11.19005 108.258737 11.19005 108.258737 38.92505 119.166737 38.92505 119.166737 0.28205 0.0977375 0.28205 0.0977375 118.79705 119.166737 118.79705 119.166737 79.70105 108.258737 79.70105"></polygon>
                <polygon id="Path" points="21.0037375 100.07505 33.3577375 100.07505 33.3577375 87.78405 43.5177375 87.78405 43.5177375 75.49405 54.8247375 75.49405 54.8247375 63.20305 21.0037375 63.20305"></polygon>
                <path d="M39.6277375,30.14505 C42.0447375,30.14505 44.2737375,31.24205 45.7417375,33.15305 L54.3927375,26.50705 C50.8427375,21.88705 45.4617375,19.23705 39.6277375,19.23705 C29.3787375,19.23705 21.0417375,27.54405 21.0417375,37.75505 C21.0417375,47.96605 29.3787375,56.27305 39.6277375,56.27305 C45.4617375,56.27305 50.8427375,53.62405 54.3927375,49.00305 L45.7417375,42.35805 C44.2737375,44.26905 42.0447375,45.36505 39.6277375,45.36505 C35.3937375,45.36505 31.9497375,41.95105 31.9497375,37.75505 C31.9497375,33.55905 35.3937375,30.14505 39.6277375,30.14505 L39.6277375,30.14505 Z" id="Path"></path>
                <path d="M61.5867375,81.63905 C61.5867375,71.45005 69.9057375,63.16105 80.1317375,63.16105 C90.3577375,63.16105 98.6767375,71.45005 98.6767375,81.63905 C98.6767375,91.82805 90.3577375,100.11705 80.1317375,100.11705 C69.9057375,100.11705 61.5867375,91.82805 61.5867375,81.63905 Z M72.4947375,81.63905 C72.4947375,85.81205 75.9207375,89.20905 80.1317375,89.20905 C84.3427375,89.20905 87.7687375,85.81205 87.7687375,81.63905 C87.7687375,77.46505 84.3427375,74.06905 80.1317375,74.06905 C75.9207375,74.06905 72.4947375,77.46505 72.4947375,81.63905 Z" id="Combined-Shape"></path>
                <path d="M61.7147375,37.20405 C61.7147375,27.08505 69.9607375,18.88105 80.1317375,18.88105 C90.3037375,18.88105 98.5487375,27.08505 98.5487375,37.20405 C98.5487375,47.32405 90.3037375,55.52705 80.1317375,55.52705 C69.9607375,55.52705 61.7147375,47.32405 61.7147375,37.20405 L61.7147375,37.20405 Z" id="Path"></path>
                <polygon id="Path" points="128.585737 53.87705 119.166737 53.87705 119.166737 44.53505 108.258737 44.53505 108.258737 53.87705 98.8397375 53.87705 98.8397375 64.78505 108.258737 64.78505 108.258737 74.12805 119.166737 74.12805 119.166737 64.78505 128.585737 64.78505"></polygon>
            </g>
        </g>
    </g>
</svg>